<mxfile host="app.diagrams.net" agent="Mozilla/5.0 (X11; Linux x86_64; rv:139.0) Gecko/20100101 Firefox/139.0" version="28.0.7">
  <diagram name="Page-1" id="1dEPQsVKpaM6YdNbVML0">
    <mxGraphModel dx="575" dy="548" grid="1" gridSize="10" guides="1" tooltips="1" connect="1" arrows="1" fold="1" page="1" pageScale="1" pageWidth="827" pageHeight="1169" math="0" shadow="0">
      <root>
        <mxCell id="0" />
        <mxCell id="1" parent="0" />
        <mxCell id="e7NKnEhkEzFiC8HTdz4C-1" value="" style="verticalLabelPosition=bottom;verticalAlign=top;html=1;shape=mxgraph.basic.orthogonal_triangle" vertex="1" parent="1">
          <mxGeometry x="180" y="290" width="140" height="70" as="geometry" />
        </mxCell>
        <mxCell id="e7NKnEhkEzFiC8HTdz4C-2" value="" style="whiteSpace=wrap;html=1;aspect=fixed;" vertex="1" parent="1">
          <mxGeometry x="180" y="350" width="10" height="10" as="geometry" />
        </mxCell>
        <mxCell id="e7NKnEhkEzFiC8HTdz4C-3" value="" style="verticalLabelPosition=bottom;verticalAlign=top;html=1;shape=mxgraph.basic.arc;startAngle=0.22011675808780556;endAngle=0.30911001229915397;rotation=-180;" vertex="1" parent="1">
          <mxGeometry x="290" y="330" width="50" height="50" as="geometry" />
        </mxCell>
        <mxCell id="e7NKnEhkEzFiC8HTdz4C-6" value="&lt;font style=&quot;font-size: 8px;&quot; face=&quot;Times New Roman&quot;&gt;&lt;span style=&quot;-webkit-line-clamp:6&quot; id=&quot;_kfmRaMHmJ6-rhbIPpMSWiQQ_76&quot; class=&quot;wtBS9&quot;&gt;&lt;span&gt;Î¸&lt;/span&gt;&lt;/span&gt;&lt;/font&gt;" style="text;html=1;align=center;verticalAlign=middle;resizable=0;points=[];autosize=1;strokeColor=none;fillColor=none;" vertex="1" parent="1">
          <mxGeometry x="280" y="339" width="30" height="30" as="geometry" />
        </mxCell>
        <mxCell id="e7NKnEhkEzFiC8HTdz4C-7" value="&lt;font style=&quot;font-size: 10px;&quot; face=&quot;Times New Roman&quot;&gt;Hypotenuse&lt;/font&gt;" style="text;html=1;align=center;verticalAlign=middle;resizable=0;points=[];autosize=1;strokeColor=none;fillColor=none;rotation=28;" vertex="1" parent="1">
          <mxGeometry x="215" y="302" width="70" height="30" as="geometry" />
        </mxCell>
        <mxCell id="e7NKnEhkEzFiC8HTdz4C-8" value="&lt;font style=&quot;font-size: 10px;&quot; face=&quot;Times New Roman&quot;&gt;Adjacent&lt;/font&gt;" style="text;html=1;align=center;verticalAlign=middle;resizable=0;points=[];autosize=1;strokeColor=none;fillColor=none;rotation=0;" vertex="1" parent="1">
          <mxGeometry x="215" y="353" width="60" height="30" as="geometry" />
        </mxCell>
        <mxCell id="e7NKnEhkEzFiC8HTdz4C-9" value="&lt;font style=&quot;font-size: 10px;&quot; face=&quot;Times New Roman&quot;&gt;Opposite&lt;/font&gt;" style="text;html=1;align=center;verticalAlign=middle;resizable=0;points=[];autosize=1;strokeColor=none;fillColor=none;rotation=0;" vertex="1" parent="1">
          <mxGeometry x="128" y="310" width="60" height="30" as="geometry" />
        </mxCell>
      </root>
    </mxGraphModel>
  </diagram>
</mxfile>
